<mxfile host="app.diagrams.net" agent="Mozilla/5.0 (Windows NT 10.0; Win64; x64) AppleWebKit/537.36 (KHTML, like Gecko) Chrome/135.0.0.0 Safari/537.36 Edg/135.0.0.0" version="26.2.14">
  <diagram name="Strona-1" id="3xTaTDxCvWtjKmtX6A0N">
    <mxGraphModel dx="1134" dy="629" grid="1" gridSize="10" guides="1" tooltips="1" connect="1" arrows="1" fold="1" page="1" pageScale="1" pageWidth="827" pageHeight="1169" math="0" shadow="0">
      <root>
        <mxCell id="0" />
        <mxCell id="1" parent="0" />
        <mxCell id="5CMreKUD5mWX4NZzkVMq-24" style="edgeStyle=orthogonalEdgeStyle;rounded=0;orthogonalLoop=1;jettySize=auto;html=1;" edge="1" parent="1" source="5CMreKUD5mWX4NZzkVMq-1" target="5CMreKUD5mWX4NZzkVMq-2">
          <mxGeometry relative="1" as="geometry" />
        </mxCell>
        <mxCell id="5CMreKUD5mWX4NZzkVMq-1" value="Input: Audio File" style="rounded=0;whiteSpace=wrap;html=1;" vertex="1" parent="1">
          <mxGeometry x="115" y="70" width="120" height="60" as="geometry" />
        </mxCell>
        <mxCell id="5CMreKUD5mWX4NZzkVMq-2" value="MelSpectogram" style="rounded=0;whiteSpace=wrap;html=1;" vertex="1" parent="1">
          <mxGeometry x="294" y="70" width="120" height="60" as="geometry" />
        </mxCell>
        <mxCell id="5CMreKUD5mWX4NZzkVMq-46" style="edgeStyle=orthogonalEdgeStyle;rounded=0;orthogonalLoop=1;jettySize=auto;html=1;" edge="1" parent="1" source="5CMreKUD5mWX4NZzkVMq-4" target="5CMreKUD5mWX4NZzkVMq-26">
          <mxGeometry relative="1" as="geometry" />
        </mxCell>
        <mxCell id="5CMreKUD5mWX4NZzkVMq-4" value="" style="swimlane;startSize=0;" vertex="1" parent="1">
          <mxGeometry x="115" y="160" width="350" height="220" as="geometry" />
        </mxCell>
        <mxCell id="5CMreKUD5mWX4NZzkVMq-10" style="edgeStyle=orthogonalEdgeStyle;rounded=0;orthogonalLoop=1;jettySize=auto;html=1;" edge="1" parent="5CMreKUD5mWX4NZzkVMq-4" source="5CMreKUD5mWX4NZzkVMq-5" target="5CMreKUD5mWX4NZzkVMq-6">
          <mxGeometry relative="1" as="geometry" />
        </mxCell>
        <mxCell id="5CMreKUD5mWX4NZzkVMq-13" value="" style="edgeStyle=orthogonalEdgeStyle;rounded=0;orthogonalLoop=1;jettySize=auto;html=1;" edge="1" parent="5CMreKUD5mWX4NZzkVMq-4" source="5CMreKUD5mWX4NZzkVMq-5" target="5CMreKUD5mWX4NZzkVMq-12">
          <mxGeometry relative="1" as="geometry" />
        </mxCell>
        <mxCell id="5CMreKUD5mWX4NZzkVMq-5" value="Conv2d" style="whiteSpace=wrap;html=1;aspect=fixed;" vertex="1" parent="5CMreKUD5mWX4NZzkVMq-4">
          <mxGeometry x="23" y="75" width="50" height="50" as="geometry" />
        </mxCell>
        <mxCell id="5CMreKUD5mWX4NZzkVMq-11" style="edgeStyle=orthogonalEdgeStyle;rounded=0;orthogonalLoop=1;jettySize=auto;html=1;" edge="1" parent="5CMreKUD5mWX4NZzkVMq-4" source="5CMreKUD5mWX4NZzkVMq-6" target="5CMreKUD5mWX4NZzkVMq-7">
          <mxGeometry relative="1" as="geometry" />
        </mxCell>
        <mxCell id="5CMreKUD5mWX4NZzkVMq-21" style="edgeStyle=orthogonalEdgeStyle;rounded=0;orthogonalLoop=1;jettySize=auto;html=1;" edge="1" parent="5CMreKUD5mWX4NZzkVMq-4" source="5CMreKUD5mWX4NZzkVMq-6" target="5CMreKUD5mWX4NZzkVMq-19">
          <mxGeometry relative="1" as="geometry" />
        </mxCell>
        <mxCell id="5CMreKUD5mWX4NZzkVMq-6" value="Conv2d" style="whiteSpace=wrap;html=1;aspect=fixed;" vertex="1" parent="5CMreKUD5mWX4NZzkVMq-4">
          <mxGeometry x="143" y="75" width="50" height="50" as="geometry" />
        </mxCell>
        <mxCell id="5CMreKUD5mWX4NZzkVMq-22" style="edgeStyle=orthogonalEdgeStyle;rounded=0;orthogonalLoop=1;jettySize=auto;html=1;" edge="1" parent="5CMreKUD5mWX4NZzkVMq-4" source="5CMreKUD5mWX4NZzkVMq-7" target="5CMreKUD5mWX4NZzkVMq-20">
          <mxGeometry relative="1" as="geometry" />
        </mxCell>
        <mxCell id="5CMreKUD5mWX4NZzkVMq-7" value="Conv2d" style="whiteSpace=wrap;html=1;aspect=fixed;" vertex="1" parent="5CMreKUD5mWX4NZzkVMq-4">
          <mxGeometry x="277" y="75" width="50" height="50" as="geometry" />
        </mxCell>
        <mxCell id="5CMreKUD5mWX4NZzkVMq-12" value="Pool_freq" style="whiteSpace=wrap;html=1;" vertex="1" parent="5CMreKUD5mWX4NZzkVMq-4">
          <mxGeometry x="13" y="170" width="70" height="30" as="geometry" />
        </mxCell>
        <mxCell id="5CMreKUD5mWX4NZzkVMq-20" value="Pool_freq" style="whiteSpace=wrap;html=1;" vertex="1" parent="5CMreKUD5mWX4NZzkVMq-4">
          <mxGeometry x="267" y="170" width="70" height="30" as="geometry" />
        </mxCell>
        <mxCell id="5CMreKUD5mWX4NZzkVMq-19" value="Pool_freq" style="whiteSpace=wrap;html=1;" vertex="1" parent="5CMreKUD5mWX4NZzkVMq-4">
          <mxGeometry x="133" y="170" width="70" height="30" as="geometry" />
        </mxCell>
        <mxCell id="5CMreKUD5mWX4NZzkVMq-23" value="CNN Feature Extractor" style="text;html=1;align=center;verticalAlign=middle;resizable=0;points=[];autosize=1;strokeColor=none;fillColor=none;" vertex="1" parent="5CMreKUD5mWX4NZzkVMq-4">
          <mxGeometry x="93" y="20" width="150" height="30" as="geometry" />
        </mxCell>
        <mxCell id="5CMreKUD5mWX4NZzkVMq-36" style="edgeStyle=orthogonalEdgeStyle;rounded=0;orthogonalLoop=1;jettySize=auto;html=1;" edge="1" parent="1" source="5CMreKUD5mWX4NZzkVMq-26" target="5CMreKUD5mWX4NZzkVMq-28">
          <mxGeometry relative="1" as="geometry" />
        </mxCell>
        <mxCell id="5CMreKUD5mWX4NZzkVMq-26" value="Flatten Time-Frequency to Frame Features" style="rounded=0;whiteSpace=wrap;html=1;" vertex="1" parent="1">
          <mxGeometry x="510" y="160" width="145" height="60" as="geometry" />
        </mxCell>
        <mxCell id="5CMreKUD5mWX4NZzkVMq-37" style="edgeStyle=orthogonalEdgeStyle;rounded=0;orthogonalLoop=1;jettySize=auto;html=1;" edge="1" parent="1" source="5CMreKUD5mWX4NZzkVMq-28" target="5CMreKUD5mWX4NZzkVMq-29">
          <mxGeometry relative="1" as="geometry" />
        </mxCell>
        <mxCell id="5CMreKUD5mWX4NZzkVMq-28" value="Linear Projection to d_model" style="rounded=0;whiteSpace=wrap;html=1;" vertex="1" parent="1">
          <mxGeometry x="700" y="160" width="170" height="60" as="geometry" />
        </mxCell>
        <mxCell id="5CMreKUD5mWX4NZzkVMq-38" style="edgeStyle=orthogonalEdgeStyle;rounded=0;orthogonalLoop=1;jettySize=auto;html=1;" edge="1" parent="1" source="5CMreKUD5mWX4NZzkVMq-29" target="5CMreKUD5mWX4NZzkVMq-30">
          <mxGeometry relative="1" as="geometry" />
        </mxCell>
        <mxCell id="5CMreKUD5mWX4NZzkVMq-29" value="Positional Encoding" style="rounded=0;whiteSpace=wrap;html=1;" vertex="1" parent="1">
          <mxGeometry x="723.25" y="250" width="123.5" height="60" as="geometry" />
        </mxCell>
        <mxCell id="5CMreKUD5mWX4NZzkVMq-40" style="edgeStyle=orthogonalEdgeStyle;rounded=0;orthogonalLoop=1;jettySize=auto;html=1;" edge="1" parent="1" source="5CMreKUD5mWX4NZzkVMq-30" target="5CMreKUD5mWX4NZzkVMq-31">
          <mxGeometry relative="1" as="geometry" />
        </mxCell>
        <mxCell id="5CMreKUD5mWX4NZzkVMq-30" value="Transformer Encoder" style="rounded=0;whiteSpace=wrap;html=1;" vertex="1" parent="1">
          <mxGeometry x="500" y="250" width="155" height="60" as="geometry" />
        </mxCell>
        <mxCell id="5CMreKUD5mWX4NZzkVMq-41" style="edgeStyle=orthogonalEdgeStyle;rounded=0;orthogonalLoop=1;jettySize=auto;html=1;" edge="1" parent="1" source="5CMreKUD5mWX4NZzkVMq-31" target="5CMreKUD5mWX4NZzkVMq-32">
          <mxGeometry relative="1" as="geometry" />
        </mxCell>
        <mxCell id="5CMreKUD5mWX4NZzkVMq-31" value="Dropout (0.3)" style="rounded=0;whiteSpace=wrap;html=1;" vertex="1" parent="1">
          <mxGeometry x="505" y="330" width="155" height="40" as="geometry" />
        </mxCell>
        <mxCell id="5CMreKUD5mWX4NZzkVMq-45" style="edgeStyle=orthogonalEdgeStyle;rounded=0;orthogonalLoop=1;jettySize=auto;html=1;entryX=0.5;entryY=0;entryDx=0;entryDy=0;" edge="1" parent="1" source="5CMreKUD5mWX4NZzkVMq-32" target="5CMreKUD5mWX4NZzkVMq-33">
          <mxGeometry relative="1" as="geometry">
            <Array as="points">
              <mxPoint x="785" y="380" />
              <mxPoint x="675" y="380" />
            </Array>
          </mxGeometry>
        </mxCell>
        <mxCell id="5CMreKUD5mWX4NZzkVMq-32" value="FC Output Head" style="rounded=0;whiteSpace=wrap;html=1;" vertex="1" parent="1">
          <mxGeometry x="715" y="330" width="140" height="40" as="geometry" />
        </mxCell>
        <mxCell id="5CMreKUD5mWX4NZzkVMq-33" value="Frame-wise Class Logits" style="rounded=0;whiteSpace=wrap;html=1;" vertex="1" parent="1">
          <mxGeometry x="550" y="400" width="250" height="40" as="geometry" />
        </mxCell>
        <mxCell id="5CMreKUD5mWX4NZzkVMq-34" style="edgeStyle=orthogonalEdgeStyle;rounded=0;orthogonalLoop=1;jettySize=auto;html=1;entryX=0.685;entryY=0.014;entryDx=0;entryDy=0;entryPerimeter=0;" edge="1" parent="1" source="5CMreKUD5mWX4NZzkVMq-2" target="5CMreKUD5mWX4NZzkVMq-4">
          <mxGeometry relative="1" as="geometry" />
        </mxCell>
      </root>
    </mxGraphModel>
  </diagram>
</mxfile>
